<svg width="27" height="27" viewBox="0 0 27 27" fill="none" xmlns="http://www.w3.org/2000/svg">
<g clip-path="url(#clip0_155_37)">
<path d="M26.1616 20.338L26.9118 21.8495C27.119 22.2669 26.9486 22.7732 26.5312 22.9804L23.0789 24.7146C22.2326 25.1348 21.2039 24.7776 20.8014 23.9207L17.4909 16.875H10.125C9.2852 16.875 8.57324 16.2575 8.45443 15.4261C6.66736 2.91663 6.77004 3.69372 6.75 3.375C6.75 1.45768 8.3488 -0.0862228 10.2859 0.00374199C12.0405 0.0852166 13.4525 1.52803 13.4988 3.28387C13.5446 5.02057 12.2779 6.47024 10.6191 6.71366L10.8653 8.43755H17.7187C18.1848 8.43755 18.5625 8.81529 18.5625 9.2813V10.9688C18.5625 11.4348 18.1848 11.8125 17.7187 11.8125H11.3475L11.5886 13.5001H18.5625C18.8829 13.5001 19.1967 13.5913 19.4671 13.763C19.7376 13.9348 19.9535 14.18 20.0898 14.4699L23.1228 20.925L25.0306 19.9574C25.448 19.7502 25.9544 19.9206 26.1616 20.338ZM16.4193 18.5625H15.127C14.7163 21.4209 12.2515 23.625 9.28125 23.625C6.02453 23.625 3.375 20.9755 3.375 17.7187C3.375 15.53 4.57175 13.6155 6.34521 12.5953C6.14946 11.226 5.9843 10.0714 5.84487 9.09726C2.42346 10.4659 0 13.8145 0 17.7187C0 22.8365 4.16354 27 9.28125 27C13.0713 27 16.3374 24.7162 17.7773 21.4528L16.4193 18.5625Z" fill="#222222"/>
</g>
<defs>
<clipPath id="clip0_155_37">
<rect width="27" height="27" fill="white"/>
</clipPath>
</defs>
</svg>
