<svg width="27" height="33" viewBox="0 0 27 33" fill="none" xmlns="http://www.w3.org/2000/svg">
<g filter="url(#filter0_d_155_39)">
<path d="M13.5 6.75C14.7426 6.75 15.75 5.74264 15.75 4.5C15.75 3.25736 14.7426 2.25 13.5 2.25C12.2574 2.25 11.25 3.25736 11.25 4.5C11.25 5.74264 12.2574 6.75 13.5 6.75Z" fill="#222222"/>
<path d="M17.8761 9.12375C17.4374 8.685 16.6836 7.875 15.2211 7.875H12.3636C11.0404 7.868 9.76154 7.39684 8.75006 6.54366C7.73857 5.69048 7.05858 4.50938 6.82861 3.20625C6.78894 2.94163 6.65606 2.69988 6.45393 2.52456C6.25179 2.34924 5.99368 2.25187 5.72611 2.25C5.03986 2.25 4.49986 2.8575 4.60111 3.5325C4.84611 4.98809 5.49318 6.34619 6.46925 7.45346C7.44532 8.56073 8.71151 9.37307 10.1249 9.79875V23.625C10.1249 24.2438 10.6311 24.75 11.2499 24.75C11.8686 24.75 12.3749 24.2438 12.3749 23.625V18H14.6249V23.625C14.6249 24.2438 15.1311 24.75 15.7499 24.75C16.3686 24.75 16.8749 24.2438 16.8749 23.625V11.3063L20.5199 14.9512C20.624 15.0554 20.7477 15.138 20.8838 15.1944C21.0198 15.2508 21.1657 15.2798 21.313 15.2798C21.4603 15.2798 21.6061 15.2508 21.7422 15.1944C21.8783 15.138 22.002 15.0554 22.1061 14.9512C22.2103 14.8471 22.2929 14.7234 22.3493 14.5874C22.4056 14.4513 22.4346 14.3054 22.4346 14.1581C22.4346 14.0108 22.4056 13.865 22.3493 13.7289C22.2929 13.5928 22.2103 13.4692 22.1061 13.365L17.8761 9.12375Z" fill="#222222"/>
</g>
<defs>
<filter id="filter0_d_155_39" x="-4" y="0" width="35" height="35" filterUnits="userSpaceOnUse" color-interpolation-filters="sRGB">
<feFlood flood-opacity="0" result="BackgroundImageFix"/>
<feColorMatrix in="SourceAlpha" type="matrix" values="0 0 0 0 0 0 0 0 0 0 0 0 0 0 0 0 0 0 127 0" result="hardAlpha"/>
<feOffset dy="4"/>
<feGaussianBlur stdDeviation="2"/>
<feComposite in2="hardAlpha" operator="out"/>
<feColorMatrix type="matrix" values="0 0 0 0 0 0 0 0 0 0 0 0 0 0 0 0 0 0 0.25 0"/>
<feBlend mode="normal" in2="BackgroundImageFix" result="effect1_dropShadow_155_39"/>
<feBlend mode="normal" in="SourceGraphic" in2="effect1_dropShadow_155_39" result="shape"/>
</filter>
</defs>
</svg>
