<svg width="27" height="27" viewBox="0 0 27 27" fill="none" xmlns="http://www.w3.org/2000/svg">
<mask id="mask0_159_4" style="mask-type:luminance" maskUnits="userSpaceOnUse" x="1" y="0" width="25" height="27">
<path d="M6.75 18.5625L3.375 2.25C3.375 2.25 9.28125 3.375 9.28125 5.625C9.28125 7.03125 7.03125 7.875 7.875 8.71875C8.71875 9.5625 11.8125 10.4062 11.8125 12.6562C11.8125 14.0625 10.89 15.1088 11.8125 16.0312C12.6562 16.875 13.5 16.4329 14.9062 16.0312C16.4812 15.5812 19.6875 15.1875 20.8125 15.4688C21.9375 15.75 23.0625 16.3125 23.0625 18C23.0625 18.9281 22.5 19.9688 21.0938 20.25C19.6875 20.5312 18 19.125 15.75 19.125C13.5 19.125 10.6875 20.8125 9 20.8125C7.3125 20.8125 6.75 18.5625 6.75 18.5625Z" fill="white" stroke="white" stroke-width="4" stroke-linejoin="round"/>
<path d="M20.8125 20.25L22.5 24.75H3.9375L7.3125 20.25" stroke="white" stroke-width="4" stroke-linejoin="round"/>
</mask>
<g mask="url(#mask0_159_4)">
<path d="M27 0H0V27H27V0Z" fill="#222222"/>
</g>
</svg>
