<svg width="110" height="24" viewBox="0 0 110 24" fill="none" xmlns="http://www.w3.org/2000/svg">
<path d="M98 15.39L94.24 17.66L95.23 13.38L91.91 10.5L96.29 10.13L98 6.09L99.71 10.13L104.09 10.5L100.77 13.38L101.76 17.66M108 9.24L100.81 8.63L98 2L95.19 8.63L88 9.24L93.45 13.97L91.82 21L98 17.27L104.18 21L102.54 13.97L108 9.24Z" fill="#222222"/>
<path d="M10 16.27L16.18 20L14.54 12.97L20 8.24L12.81 7.63L10 1L7.19 7.63L0 8.24L5.46 12.97L3.82 20L10 16.27Z" fill="#222222"/>
<path d="M32 16.27L38.18 20L36.54 12.97L42 8.24L34.81 7.63L32 1L29.19 7.63L22 8.24L27.46 12.97L25.82 20L32 16.27Z" fill="#222222"/>
<path d="M54 16.27L60.18 20L58.54 12.97L64 8.24L56.81 7.63L54 1L51.19 7.63L44 8.24L49.46 12.97L47.82 20L54 16.27Z" fill="#222222"/>
<path d="M76 16.27L82.18 20L80.54 12.97L86 8.24L78.81 7.63L76 1L73.19 7.63L66 8.24L71.46 12.97L69.82 20L76 16.27Z" fill="#222222"/>
</svg>
