<svg width="24" height="23" viewBox="0 0 24 23" fill="none" xmlns="http://www.w3.org/2000/svg">
<path d="M3.064 7.19709C3.89601 5.60936 5.17237 4.27466 6.75043 3.34216C8.32849 2.40966 10.1461 1.91611 12 1.91667C14.695 1.91667 16.959 2.86638 18.69 4.41313L15.823 7.16163C14.786 6.21192 13.468 5.72796 12 5.72796C9.395 5.72796 7.19 7.41463 6.405 9.67917C6.205 10.2542 6.091 10.8675 6.091 11.5C6.091 12.1325 6.205 12.7458 6.405 13.3208C7.191 15.5863 9.395 17.272 12 17.272C13.345 17.272 14.49 16.9318 15.386 16.3568C15.9054 16.0291 16.3501 15.6038 16.6932 15.1067C17.0363 14.6096 17.2706 14.051 17.382 13.4646H12V9.75776H21.418C21.536 10.3845 21.6 11.0381 21.6 11.7175C21.6 14.6366 20.51 17.0938 18.618 18.7613C16.964 20.2256 14.7 21.0833 12 21.0833C10.6866 21.0838 9.38604 20.8363 8.17254 20.3549C6.95905 19.8734 5.85645 19.1676 4.92776 18.2776C3.99907 17.3876 3.2625 16.3309 2.76013 15.168C2.25777 14.0051 1.99948 12.7586 2 11.5C2 9.95326 2.386 8.49084 3.064 7.19709Z" fill="#F8F8F8"/>
</svg>
