<svg width="35" height="32" viewBox="0 0 35 32" fill="none" xmlns="http://www.w3.org/2000/svg">
<g filter="url(#filter0_d_155_67)">
<path d="M29.3125 11.8125H28.1734L25.2435 5.2207C25.1109 4.92247 24.8947 4.66908 24.621 4.49124C24.3473 4.31341 24.0279 4.21875 23.7016 4.21875H11.2984C10.9721 4.21875 10.6527 4.31341 10.379 4.49124C10.1053 4.66908 9.88908 4.92247 9.75648 5.2207L6.82656 11.8125H5.6875C5.46372 11.8125 5.24911 11.9014 5.09088 12.0596C4.93264 12.2179 4.84375 12.4325 4.84375 12.6562C4.84375 12.88 4.93264 13.0946 5.09088 13.2529C5.24911 13.4111 5.46372 13.5 5.6875 13.5H6.53125V21.9375C6.53125 22.3851 6.70904 22.8143 7.02551 23.1307C7.34197 23.4472 7.7712 23.625 8.21875 23.625H10.75C11.1976 23.625 11.6268 23.4472 11.9432 23.1307C12.2597 22.8143 12.4375 22.3851 12.4375 21.9375V20.25H22.5625V21.9375C22.5625 22.3851 22.7403 22.8143 23.0568 23.1307C23.3732 23.4472 23.8024 23.625 24.25 23.625H26.7812C27.2288 23.625 27.658 23.4472 27.9745 23.1307C28.291 22.8143 28.4688 22.3851 28.4688 21.9375V13.5H29.3125C29.5363 13.5 29.7509 13.4111 29.9091 13.2529C30.0674 13.0946 30.1562 12.88 30.1562 12.6562C30.1562 12.4325 30.0674 12.2179 29.9091 12.0596C29.7509 11.9014 29.5363 11.8125 29.3125 11.8125ZM12.4375 16.875H10.75C10.5262 16.875 10.3116 16.7861 10.1534 16.6279C9.99514 16.4696 9.90625 16.255 9.90625 16.0312C9.90625 15.8075 9.99514 15.5929 10.1534 15.4346C10.3116 15.2764 10.5262 15.1875 10.75 15.1875H12.4375C12.6613 15.1875 12.8759 15.2764 13.0341 15.4346C13.1924 15.5929 13.2812 15.8075 13.2812 16.0312C13.2812 16.255 13.1924 16.4696 13.0341 16.6279C12.8759 16.7861 12.6613 16.875 12.4375 16.875ZM22.5625 16.875C22.3387 16.875 22.1241 16.7861 21.9659 16.6279C21.8076 16.4696 21.7188 16.255 21.7188 16.0312C21.7188 15.8075 21.8076 15.5929 21.9659 15.4346C22.1241 15.2764 22.3387 15.1875 22.5625 15.1875H24.25C24.4738 15.1875 24.6884 15.2764 24.8466 15.4346C25.0049 15.5929 25.0938 15.8075 25.0938 16.0312C25.0938 16.255 25.0049 16.4696 24.8466 16.6279C24.6884 16.7861 24.4738 16.875 24.25 16.875H22.5625Z" fill="#222222"/>
</g>
<defs>
<filter id="filter0_d_155_67" x="0" y="0" width="35" height="35" filterUnits="userSpaceOnUse" color-interpolation-filters="sRGB">
<feFlood flood-opacity="0" result="BackgroundImageFix"/>
<feColorMatrix in="SourceAlpha" type="matrix" values="0 0 0 0 0 0 0 0 0 0 0 0 0 0 0 0 0 0 127 0" result="hardAlpha"/>
<feOffset dy="4"/>
<feGaussianBlur stdDeviation="2"/>
<feComposite in2="hardAlpha" operator="out"/>
<feColorMatrix type="matrix" values="0 0 0 0 0 0 0 0 0 0 0 0 0 0 0 0 0 0 0.25 0"/>
<feBlend mode="normal" in2="BackgroundImageFix" result="effect1_dropShadow_155_67"/>
<feBlend mode="normal" in="SourceGraphic" in2="effect1_dropShadow_155_67" result="shape"/>
</filter>
</defs>
</svg>
