<svg width="26" height="26" viewBox="0 0 26 26" fill="none" xmlns="http://www.w3.org/2000/svg">
<path d="M8.32016 2.89417C8.03322 3.19305 7.87674 3.59366 7.88513 4.00789C7.89351 4.42213 8.06608 4.81607 8.36487 5.10309L16.2542 12.6794L8.6779 20.5687C8.3993 20.8691 8.24982 21.2669 8.26167 21.6764C8.27352 22.0859 8.44575 22.4744 8.74125 22.7582C9.03675 23.042 9.43189 23.1983 9.84156 23.1936C10.2512 23.1889 10.6427 23.0234 10.9315 22.7329L19.5899 13.7168C19.8768 13.4179 20.0333 13.0173 20.0249 12.603C20.0166 12.1888 19.844 11.7949 19.5452 11.5078L10.5291 2.84946C10.2302 2.56253 9.8296 2.40605 9.41536 2.41443C9.00113 2.42282 8.60718 2.59538 8.32016 2.89417Z" fill="#F8F8F8"/>
</svg>
