<svg width="26" height="26" viewBox="0 0 26 26" fill="none" xmlns="http://www.w3.org/2000/svg">
<path d="M16.7784 2.72311C17.0772 3.01014 17.2498 3.40408 17.2582 3.81832C17.2666 4.23255 17.1101 4.63316 16.8231 4.93203L9.24687 12.8213L17.1362 20.3976C17.4267 20.6865 17.5921 21.0779 17.5969 21.4876C17.6016 21.8973 17.4452 22.2924 17.1615 22.5879C16.8777 22.8834 16.4892 23.0556 16.0797 23.0675C15.6701 23.0793 15.2724 22.9298 14.972 22.6512L5.95584 13.9929C5.65705 13.7058 5.48448 13.3119 5.4761 12.8977C5.46771 12.4834 5.62419 12.0828 5.91113 11.7839L14.5695 2.76782C14.8565 2.46903 15.2505 2.29647 15.6647 2.28808C16.079 2.2797 16.4796 2.43618 16.7784 2.72311Z" fill="#F8F8F8"/>
</svg>
