<svg width="27" height="27" viewBox="0 0 27 27" fill="none" xmlns="http://www.w3.org/2000/svg">
<path d="M10.7154 0.704224L11.5108 1.4996L14.2952 4.28397L23.8408 13.8296L24.6373 14.625L23.8419 15.4203L14.2952 24.9671L13.4998 25.7625L12.7044 24.9671L3.1588 15.4203L2.3623 14.625L3.15768 13.8296L11.9079 5.07935L9.91893 3.09035L9.12355 2.29497L10.7154 0.704224ZM6.67105 13.5H20.3308L13.5021 6.67122L6.6688 13.5H6.67105ZM20.3308 15.75H6.67105L13.4998 22.5798L20.3297 15.7511L20.3308 15.75ZM23.3447 19.5637L24.2267 20.6775L24.8229 21.4312C25.4766 22.2558 25.4766 23.5091 24.8229 24.3337C24.6488 24.561 24.4252 24.7457 24.169 24.8738C23.9129 25.0018 23.631 25.0699 23.3447 25.0728C22.7484 25.0728 22.2197 24.7803 21.8664 24.3337C21.2128 23.5091 21.2128 22.2558 21.8664 21.4312L22.4627 20.6775L23.3447 19.5637Z" fill="#222222"/>
</svg>
